<svg id="Layer_1" height="512" viewBox="0 0 32 32" width="512" xmlns="http://www.w3.org/2000/svg" data-name="Layer 1"><path d="m32 16a16 16 0 0 1 -31.03 5.5 16 16 0 0 1 30.06-11 15.906 15.906 0 0 1 .97 5.5z" fill="#438fc3"/><path d="m31.03 21.5a16.007 16.007 0 0 1 -30.06 0z" fill="#48ae68"/><path d="m32 16a15.906 15.906 0 0 1 -.97 5.5h-30.06a16.078 16.078 0 0 1 0-11h30.06a15.906 15.906 0 0 1 .97 5.5z" fill="#d6003f"/><g fill="#fff"><path d="m15.952 19.855a3.662 3.662 0 0 1 -3.423-3.855 3.656 3.656 0 0 1 3.423-3.852 3.15 3.15 0 0 1 1.858.619 3.886 3.886 0 0 0 -2.932-1.383 4.386 4.386 0 0 0 -4.109 4.616 4.388 4.388 0 0 0 4.109 4.622 3.886 3.886 0 0 0 2.932-1.383 3.15 3.15 0 0 1 -1.858.619z"/><path d="m20.584 17.748-1.122-.573-.432 1.304-.433-1.304-1.122.573.509-1.264-1.154-.487 1.154-.488-.506-1.257 1.122.566.433-1.29.435 1.297 1.119-.573-.511 1.257 1.155.494-1.155.488z"/></g></svg>