<svg id="Слой_1" height="512" viewBox="0 0 512.01 512" width="512" xmlns="http://www.w3.org/2000/svg" data-name="Слой 1"><path d="m256 512c141.38 0 256-114.63 256-256s-114.61-256-256-256-256 114.63-256 256 114.63 256 256 256z" fill="#f0f0f0"/><g fill-rule="evenodd"><path d="m411.87 52.92a255.67 255.67 0 0 0 -89.07-44.09v133.17zm-403.04 136.39a254.5 254.5 0 0 1 44.09-89.17l89.08 89.17zm450.27-89.17a255.29 255.29 0 0 1 44.09 89.17h-133.19zm-450.27 222.71h133.17l-89.07 89a255.56 255.56 0 0 1 -44.1-89zm91.33 136.25a255.84 255.84 0 0 0 89.07 44.09v-133.12zm0-406.18a255.18 255.18 0 0 1 89.07-44.09v133.17zm222.62 450.27a255.18 255.18 0 0 0 89.07-44.09l-89.07-89zm136.29-91.31-89.07-89h133.16a255 255 0 0 1 -44.09 89z" fill="#0052b4"/><path d="m509.84 222.59h-220.44v-220.45a262.86 262.86 0 0 0 -66.79 0v220.44h-220.44a258.81 258.81 0 0 0 0 66.85h220.44v220.44a262.86 262.86 0 0 0 66.79 0v-220.44h220.44a258.73 258.73 0 0 0 0-66.84zm-187 100.26 114.16 114.2 15.05-16.5-97.8-97.7h-31.45zm-247.84 114.2 114.23-114.2v31.43l-97.8 97.85zm114.22-247.89-114.22-114.16-15 16.5 97.8 97.85h31.49zm247.78-114.16-114.2 114.16v-31.43l97.8-97.85z" fill="#d80027"/></g></svg>