<?xml version="1.0" encoding="iso-8859-1"?>
<!-- Generator: Adobe Illustrator 16.0.0, SVG Export Plug-In . SVG Version: 6.00 Build 0)  -->
<!DOCTYPE svg PUBLIC "-//W3C//DTD SVG 1.1//EN" "http://www.w3.org/Graphics/SVG/1.1/DTD/svg11.dtd">
<svg version="1.1" id="Capa_1" xmlns="http://www.w3.org/2000/svg" xmlns:xlink="http://www.w3.org/1999/xlink" x="0px" y="0px"
	 width="552.956px" height="552.956px" viewBox="0 0 552.956 552.956" style="enable-background:new 0 0 552.956 552.956;"
	 xml:space="preserve">
<g>
	<path d="M532.662,253.583c-0.089-7.491-0.457-14.934-1.173-22.263c-2.375-24.419-8.208-47.823-16.958-69.771
		c-0.649-1.636-1.257-3.286-1.937-4.903c-11.673-27.541-28.039-52.611-48.064-74.252c-1.308-1.412-2.656-2.802-3.983-4.172
		c-3.806-3.934-7.667-7.767-11.71-11.447C403.299,25.307,342.782,0,276.48,0c-66.876,0-127.811,25.762-173.489,67.872
		c-10.634,9.812-20.425,20.525-29.294,31.983c-33.47,43.298-53.456,97.531-53.456,156.379c0,138.69,110.794,251.929,248.519,256.043
		v14.905h-21.819v8.603h-83.255v17.171h225.596v-17.171h-67.545v-8.603h-21.828v-15.812
		c89.401-8.147,165.643-62.398,204.729-138.723c9.067-17.722,16.164-36.63,20.922-56.438c1.201-5.006,2.252-10.062,3.151-15.189
		c2.583-14.543,4.003-29.505,4.003-44.786C532.723,255.342,532.662,254.47,532.662,253.583z M484.43,151.178l1.499-1.667
		c1.951,3.784,3.776,7.634,5.494,11.527l-2.428-0.096l-4.565,0.635V151.178z M447.396,106.463l0.046-11.442
		c4.043,4.268,7.899,8.657,11.62,13.212l-4.622,6.87l-16.137-0.147l-1.009-3.36L447.396,106.463z M138.291,78.02L138.291,78.02
		l0.006-0.432h5.132l0.45-1.753h8.398V79.5l-2.412,3.226h-11.574V78.02z M152.083,93.703l-11.578,0.722l-2.204-2.632l8.21-2.342
		c0,0,5.134-0.875,5.577-0.875C152.529,88.576,152.083,93.703,152.083,93.703z M500.748,191.167h-18.747l-11.421-8.506
		l-12.021,1.165v7.341h-3.814l-4.097-2.93l-20.828-5.278v-13.488l-26.386,2.052l-8.175,4.391h-10.482l-5.146-0.515l-12.723,7.062
		v13.289L340.91,214.51l2.156,8.009h5.275l-1.38,7.63l-3.709,1.363l-0.187,19.942l22.463,25.584h9.778l0.593-1.55h17.574
		l5.066-4.699h9.987l5.468,5.464l14.849,1.556l-1.958,19.757l16.505,29.127l-8.691,16.597l0.586,7.825l6.846,6.818v18.792
		l8.974,12.075v15.628h7.761c-43.157,53.013-108.87,86.944-182.386,86.944c-129.672,0-235.154-105.489-235.154-235.153
		c0-32.644,6.707-63.754,18.778-92.028l0.01,13.387l9.765,4.695v18.603l9.371,15.986l7.614,1.167l0.979-5.481l-8.988-13.866
		l-1.759-13.478h5.268l2.218,13.869l12.996,18.956l-3.363,6.125l8.266,12.635l20.517,5.079v-3.319l8.211,1.171l-0.78,5.86
		l6.45,1.176l9.964,2.72l14.068,16.021l17.971,1.351l1.758,14.643l-12.298,8.602l-0.583,13.101l-1.759,8.017l17.79,22.282
		l1.357,7.616c0,0,6.448,1.756,7.245,1.756c0.781,0,14.464,10.365,14.464,10.365v40.252l4.88,1.357l-3.318,18.561l8.208,10.955
		l-1.52,18.404l10.849,19.068l13.921,12.146l13.994,0.274l1.375-4.515l-10.288-8.662l0.593-4.295l1.844-5.271l0.387-5.384
		l-6.952-0.187l-3.508-4.41l5.771-5.564l0.78-4.192l-6.45-1.831l0.38-3.897l9.191-1.401l13.973-6.697l4.69-8.613l14.669-18.757
		l-3.332-14.666l4.503-7.824l13.475,0.41l9.081-7.186l2.934-28.301l10.07-12.782l1.751-8.223l-9.184-2.94l-6.042-9.938
		l-20.717-0.208l-16.429-6.249l-0.78-11.721l-5.481-9.57l-14.853-0.219l-8.578-13.475l-7.622-3.72l-0.386,4.106l-13.874,0.817
		l-5.075-7.064l-14.475-2.946l-11.913,13.8l-18.761-3.173l-1.368-21.133l-13.683-2.343l5.493-10.372l-1.569-5.956l-17.992,12.025
		l-11.325-1.379l-4.035-8.842l2.465-9.117l6.243-11.494l14.362-7.272l27.734-0.011l-0.072,8.462l9.973,4.632l-0.796-14.463
		l7.19-7.228l14.5-9.53l0.988-6.695l14.46-15.059l15.376-8.514l-1.354-1.122l10.412-9.8l3.813,1.01l1.749,2.189l3.957-4.38
		l0.966-0.433l-4.334-0.616l-4.392-1.458v-4.214l2.332-1.91h5.138l2.347,1.037l2.028,4.102l2.494-0.375v-0.358l0.711,0.246
		l7.209-1.111l1.021-3.518l4.113,1.031v3.817l-3.814,2.626h0.012l0.556,4.181l13.073,4.027c0,0,0.009,0.052,0.033,0.153l2.99-0.246
		l0.206-5.661l-10.352-4.711L272.913,127l8.583-2.928l0.37-8.219l-8.976-5.469l-0.595-13.858l-12.308,6.046h-4.497l1.185-10.55
		l-16.754-3.956l-6.936,5.245v15.976l-12.469,3.957l-4.999,10.41l-5.417,0.873v-13.319l-11.718-1.63l-5.855-3.809l-2.364-8.64
		l20.962-12.26l10.259-3.127l1.038,6.892l5.71-0.299l0.442-3.466l5.974-0.854l0.112-1.215l-2.573-1.064l-0.593-3.667l7.352-0.615
		l4.438-4.622l0.24-0.336l0.049,0.017l1.352-1.39l15.442-1.951l6.833,5.795l-17.911,9.543l22.788,5.374l2.951-7.617h9.944
		l3.529-6.638l-7.042-1.762v-8.405l-22.076-9.775l-15.237,1.759l-8.601,4.493l0.59,10.943l-8.988-1.373l-1.396-6.052l8.609-7.818
		l-15.625-0.782l-4.489,1.36l-1.957,5.267l5.856,0.998l-1.166,5.85l-9.957,0.594l-1.557,3.902l-14.451,0.402
		c0,0-0.401-8.203-0.98-8.203c-0.577,0,11.33-0.197,11.33-0.197l8.612-8.416l-4.696-2.353l-6.25,6.074l-10.373-0.588l-6.25-8.602
		h-13.291l-13.867,10.362h12.709l1.157,3.72l-3.3,3.064l14.071,0.39l2.152,5.08l-15.842-0.588l-0.771-3.907l-9.966-2.15
		l-5.272-2.925l-11.86,0.09c38.817-28.274,86.547-45.013,138.148-45.013c59.466,0,113.792,22.222,155.248,58.75l-2.802,4.993
		l-10.851,4.251l-4.557,4.96l1.051,5.79l5.598,0.777l3.386,8.435l9.646-3.891l1.605,11.275h-2.918l-7.918-1.166l-8.777,1.48
		l-8.519,12.011l-12.153,1.907l-1.764,10.416l5.135,1.209l-1.479,6.698l-12.093-2.433l-11.075,2.433l-2.348,6.167l1.917,12.939
		l6.515,3.042l10.897-0.061l7.357-0.667l2.251-5.86l11.519-14.955l7.561,1.546l7.464-6.742l1.39,5.27l18.358,12.378l-2.237,3.017
		l-8.283-0.446l3.185,4.509l5.076,1.122l5.971-2.49l-0.126-7.187l2.661-1.327l-2.142-2.26l-12.229-6.824l-3.227-9.072h10.165
		l3.255,3.223l8.772,7.557l0.368,9.135l9.082,9.677l3.376-13.259l6.304-3.442l1.171,10.849l6.169,6.742l12.252-0.213
		c2.361,6.104,4.506,12.317,6.355,18.643L500.748,191.167z M159.999,116.414l6.152-2.925l5.565,1.327l-1.917,7.474l-6.006,1.914
		L159.999,116.414z M192.671,134.004v4.84h-14.063l-5.267-1.464l1.316-3.376l6.759-2.791h9.233v2.791H192.671z M199.134,140.748
		v4.692l-3.516,2.269l-4.385,0.812c0,0,0-7.032,0-7.773H199.134z M195.172,138.844v-5.576l4.84,4.405L195.172,138.844z
		 M197.375,150.119v4.566l-3.369,3.374h-7.469l1.17-5.127l3.535-0.303l0.723-1.759L197.375,150.119z M178.76,140.748h7.762
		l-9.959,13.927l-4.113-2.203l0.892-5.86L178.76,140.748z M210.57,148.521v4.55h-7.468l-2.047-2.946v-4.233h0.588L210.57,148.521z
		 M203.67,142.255l2.138-2.23l3.591,2.23l-2.874,2.37L203.67,142.255z"/>
</g>
<g>
</g>
<g>
</g>
<g>
</g>
<g>
</g>
<g>
</g>
<g>
</g>
<g>
</g>
<g>
</g>
<g>
</g>
<g>
</g>
<g>
</g>
<g>
</g>
<g>
</g>
<g>
</g>
<g>
</g>
</svg>
